PathFileType	4	(X/Y/Z)	C:\Users\Basilio\Documents\Thesis Gigler\squatting_fais\c3dfiles\040\SLS_pre_back4\markers_experimental.trc
DataRate	CameraRate	NumFrames	NumMarkers	Units	OrigDataRate	OrigDataStartFrame	OrigNumFrames
200.000000	200.000000	4	63	mm	200.000000	780	1249
Frame#	Time	FHD			LBHD			RBHD			C7			T10			CLAV			LSHO			LUUPA			LMUPA			LDUPA			LLEP			LMEP			LRAD			LUL			LRFIN			RSHO			RUPA1			RMUPA			RDUPA			RLEP			RMEP			RRAD			RUL			RUFIN			LASI			RASI			USACR			LSACR			RSACR			LTHI1			LTHI2			LTHI3			LTHI4			LLFC			LMFC			LTIB1			LTIB2			LTIB3			LTIB4			LLMAL			LMMAL			LHEE			LMT1			LMT2			LMT5			RTHI			RTHI2			RTHI3			RTHI4			RLFC			RMFC			RTIB1			RTIB2			RTIB3			RTIB4			RLMAL			RMMAL			RHEE			RMT1			RMT2			RMT5			*61			*62			
		X1	Y1	Z1	X2	Y2	Z2	X3	Y3	Z3	X4	Y4	Z4	X5	Y5	Z5	X6	Y6	Z6	X7	Y7	Z7	X8	Y8	Z8	X9	Y9	Z9	X10	Y10	Z10	X11	Y11	Z11	X12	Y12	Z12	X13	Y13	Z13	X14	Y14	Z14	X15	Y15	Z15	X16	Y16	Z16	X17	Y17	Z17	X18	Y18	Z18	X19	Y19	Z19	X20	Y20	Z20	X21	Y21	Z21	X22	Y22	Z22	X23	Y23	Z23	X24	Y24	Z24	X25	Y25	Z25	X26	Y26	Z26	X27	Y27	Z27	X28	Y28	Z28	X29	Y29	Z29	X30	Y30	Z30	X31	Y31	Z31	X32	Y32	Z32	X33	Y33	Z33	X34	Y34	Z34	X35	Y35	Z35	X36	Y36	Z36	X37	Y37	Z37	X38	Y38	Z38	X39	Y39	Z39	X40	Y40	Z40	X41	Y41	Z41	X42	Y42	Z42	X43	Y43	Z43	X44	Y44	Z44	X45	Y45	Z45	X46	Y46	Z46	X47	Y47	Z47	X48	Y48	Z48	X49	Y49	Z49	X50	Y50	Z50	X51	Y51	Z51	X52	Y52	Z52	X53	Y53	Z53	X54	Y54	Z54	X55	Y55	Z55	X56	Y56	Z56	X57	Y57	Z57	X58	Y58	Z58	X59	Y59	Z59	X60	Y60	Z60	X61	Y61	Z61	X62	Y62	Z62	X63	Y63	Z63	

781	3.9	-93.14259338378908	1703.647827148438	-1223.049682617188	-211.348617553711	1642.574096679688	-1268.42626953125	-261.4419250488282	1592.294311523438	-1139.092895507813	-252.1260375976563	1495.41015625	-1189.537963867188	-370.2206726074219	1215.745239257813	-1138.121826171875	-138.5148315429688	1409.236328125	-1190.311889648438	-181.2337341308594	1476.4052734375	-1326.590087890625	-24.10384178161622	1434.122314453125	-1398.710083007813	3.073311090469361	1443.80908203125	-1358.303344726563	42.6683578491211	1420.827392578125	-1397.043701171875	99.34212493896487	1394.698120117188	-1398.027221679688	87.15503692626955	1336.65087890625	-1367.3916015625	362.5895996093751	1401.9462890625	-1268.282958984375	371.9508361816407	1414.28857421875	-1344.763061523438	456.3021240234376	1407.5673828125	-1262.625244140625	-158.1970977783203	1479.046752929688	-1058.523803710938	-5.591737270355225	1406.103271484375	-982.8093872070315	23.22688674926758	1425.614379882813	-1016.849792480469	59.97339630126955	1383.113159179688	-991.6890869140627	118.650390625	1368.345336914063	-1006.627807617188	101.4955444335938	1312.602783203125	-1055.69775390625	376.5197143554688	1397.850219726563	-1149.980346679688	387.2522888183595	1378.835693359375	-1076.299438476563	473.6826477050782	1400.114379882813	-1149.805419921875	-273.5331420898438	991.902770996094	-1232.177124023438	-261.5374755859376	988.9611816406252	-1010.421081542969	-430.0714111328126	1093.6220703125	-1113.48486328125	-449.2134399414064	1065.800659179688	-1140.96875	-443.4197692871095	1065.729614257813	-1083.997802734375	-332.4258728027344	747.2885131835939	-1281.405029296875	-268.8325805664063	690.6970214843751	-1283.685791015625	-225.8574218750001	710.0152587890626	-1285.88330078125	-267.8339538574219	635.0639038085939	-1261.822509765625	-206.2760772705079	525.3623657226564	-1243.044799804688	-217.1614990234376	518.6316528320314	-1117.481811523438	-217.3685302734376	307.4357910156251	-1180.283325195313	-290.7522583007813	285.6087341308594	-1223.831420898438	-253.0213623046876	268.9713439941407	-1205.704833984375	-271.9708862304688	195.4939117431641	-1162.446411132813	-360.9989318847657	128.2266082763672	-1175.597412109375	-328.9436645507813	143.0363311767578	-1092.088134765625	-429.0571594238282	102.0328369140625	-1124.656005859375	-217.6248016357422	56.92660140991212	-1103.74169921875	-218.6811981201172	51.69412994384767	-1149.498291015625	-270.8102111816407	39.10438919067384	-1198.6884765625	-363.3581848144532	738.1786499023439	-936.1479492187502	-341.4209289550782	675.3795776367189	-939.539978027344	-309.0842590332032	670.6944580078126	-946.0388793945315	-385.2336730957032	605.5438232421876	-945.2783203125002	-416.0409240722657	497.7192993164064	-952.9021606445315	-421.0357666015626	495.3163146972657	-1083.040893554688	-569.4843750000001	396.580291748047	-990.6781005859377	-658.4054565429689	452.1865539550782	-962.9921875000002	-653.4222412109376	407.2609863281251	-976.7557373046877	-696.8169555664064	386.116668701172	-1012.953979492188	-820.9919433593752	413.5763244628907	-994.4188232421877	-797.1790161132815	408.983856201172	-1081.576293945313	-858.725280761719	482.3388671875001	-1048.31689453125	-858.0922851562502	266.4302978515626	-1096.995239257813	-866.0272216796877	260.2856750488282	-1056.946044921875	-903.919128417969	292.8893737792969	-1008.173156738281	nan	nan	nan	nan	nan	nan	
782	3.905	-94.05364227294923	1705.654907226563	-1223.14306640625	-212.4679565429688	1644.5517578125	-1268.472900390625	-262.3508605957032	1594.100708007813	-1139.221557617188	-252.8317260742188	1496.98974609375	-1189.577270507813	-369.7992553710938	1217.294067382813	-1138.108642578125	-139.1831970214844	1411.529541015625	-1190.283203125	-182.0236358642578	1478.336059570313	-1326.521118164063	-25.71058654785157	1436.347290039063	-1398.35302734375	1.615037918090821	1446.045532226563	-1358.073364257813	41.98860549926759	1422.878173828125	-1396.868041992188	99.08942413330081	1396.3828125	-1397.617919921875	86.29981994628908	1338.494873046875	-1367.148193359375	362.1748657226563	1404.492309570313	-1267.794677734375	370.4673461914063	1416.772583007813	-1344.05859375	455.512176513672	1408.990966796875	-1262.1796875	-159.0888824462891	1480.80029296875	-1058.283081054688	-6.355441570281984	1408.145751953125	-982.762878417969	22.82005119323731	1427.609985351563	-1017.053466796875	58.79469299316408	1384.684692382813	-991.7777099609377	118.0356979370117	1370.12451171875	-1006.88671875	100.7866897583008	1315.228515625	-1055.661254882813	375.6585998535157	1399.869262695313	-1149.901245117188	386.7509765625001	1380.666137695313	-1076.364013671875	473.3010864257814	1401.788940429688	-1149.6767578125	-272.6653747558594	993.2739257812502	-1232.343383789063	-260.8068237304688	990.5666503906252	-1010.365356445313	-429.4013671875001	1094.820068359375	-1113.531982421875	-448.7413024902345	1066.68212890625	-1140.8505859375	-442.6532592773439	1066.627685546875	-1083.873291015625	-332.4628601074219	748.3812255859376	-1280.906127929688	-269.0369262695313	691.4961547851564	-1283.107299804688	-225.8856811523438	710.4855957031251	-1285.363525390625	-268.4265136718751	635.9276733398439	-1261.379638671875	-206.2317199707032	525.9711914062501	-1241.834350585938	-218.2475585937501	519.3191528320314	-1116.722534179688	-217.5460662841797	307.6088562011719	-1179.517456054688	-291.0644836425782	285.7831420898438	-1223.295654296875	-253.4138336181641	269.2757568359376	-1204.938110351563	-272.2947998046876	195.6324462890626	-1162.101440429688	-361.0300903320313	128.3789520263672	-1175.245727539063	-329.0119323730469	142.6138763427735	-1091.581176757813	-429.1321716308595	101.9921798706055	-1124.672973632813	-217.5965118408204	56.7431106567383	-1103.447021484375	-218.7024383544922	51.73096847534181	-1149.172119140625	-270.8005981445313	39.25505828857423	-1198.544555664063	-362.1692199707032	739.9871215820314	-936.0001220703127	-339.8285217285157	677.5723876953126	-939.8697509765627	-307.9275512695313	672.5439453125001	-945.6217041015627	-383.4969482421876	607.1227416992189	-944.7104492187502	-415.0135192871095	499.2509765625001	-952.8848266601565	-418.6107482910157	496.1548767089845	-1082.678466796875	-567.0036010742189	398.3457031250001	-989.7402343750002	-657.0505981445314	453.7525634765626	-963.1724853515627	-651.6598510742189	408.5369262695314	-976.8689575195315	-694.5546875000001	387.3367309570314	-1012.769409179688	-819.5871582031252	414.9181213378907	-994.967224121094	-795.3128662109377	410.1925048828126	-1082.471435546875	-856.6683349609377	483.9095764160157	-1049.302368164063	-856.1904296875002	267.3778381347657	-1097.706787109375	-864.1926879882815	261.2683105468751	-1057.757690429688	-902.747253417969	294.2152099609376	-1009.569213867188	nan	nan	nan	nan	nan	nan	
783	3.91	-95.12615966796876	1707.598266601563	-1223.2158203125	-213.4099578857422	1646.53173828125	-1268.555419921875	-263.2669067382813	1596.273193359375	-1139.25390625	-253.6039581298829	1498.799560546875	-1189.350708007813	-370.1734008789063	1218.36669921875	-1138.259521484375	-139.8986206054688	1413.658447265625	-1190.179077148438	-183.0137481689453	1480.457641601563	-1326.515380859375	-26.49348640441895	1438.443969726563	-1398.171264648438	0.7866759896278384	1447.90380859375	-1357.831420898438	41.24827575683594	1424.698364257813	-1396.768798828125	97.73279571533206	1398.625366210938	-1397.411865234375	85.80191802978517	1340.129638671875	-1366.718139648438	361.0536193847657	1406.228149414063	-1267.366455078125	369.6881713867188	1418.496459960938	-1343.184448242188	454.112762451172	1411.48193359375	-1261.005981445313	-159.8911437988282	1482.7158203125	-1058.24462890625	-7.081359386444094	1410.331176757813	-982.9997558593752	21.71708488464356	1429.398681640625	-1017.011047363281	58.23004150390626	1386.949584960938	-992.007019042969	117.4660568237305	1372.55615234375	-1007.042724609375	99.72547149658206	1316.502197265625	-1055.584228515625	376.0515441894532	1402.11572265625	-1150.191284179688	386.0717773437501	1382.877075195313	-1076.06982421875	472.124481201172	1404.074951171875	-1149.601318359375	-272.0986633300782	994.8113403320315	-1232.530883789063	-259.8741760253907	992.4954833984377	-1010.426818847656	-428.8591613769532	1095.92333984375	-1113.527221679688	-447.9499816894532	1067.821044921875	-1140.763305664063	-441.8234252929689	1067.709716796875	-1083.633666992188	-332.4574584960938	749.6480712890626	-1280.423828125	-269.2170410156251	692.2156982421876	-1282.472778320313	-225.5519104003907	710.8914794921876	-1284.51904296875	-268.8620605468751	636.7653198242189	-1260.58837890625	-207.1199493408204	526.4291992187501	-1241.057006835938	-219.2201538085938	519.3417358398439	-1115.741333007813	-217.9895782470704	308.0780639648438	-1178.76025390625	-291.4356079101563	286.0423889160157	-1222.7431640625	-253.5294342041016	269.7064208984376	-1204.394409179688	-272.3447570800782	195.6352233886719	-1161.512329101563	-361.0682678222657	128.5428466796875	-1174.95458984375	-329.2843627929688	142.8370513916016	-1091.485961914063	-428.8755187988282	101.6759033203125	-1124.678588867188	-217.5922393798829	56.68323135375978	-1103.256591796875	-218.6990814208985	51.74086380004884	-1149.08447265625	-270.4302368164063	39.64220809936524	-1198.738403320313	-360.9717102050782	741.6586914062501	-935.7198486328127	-338.2934875488282	678.8366699218751	-939.2224731445315	-306.1309204101563	674.3809204101564	-945.2680664062502	-382.2758483886719	608.7166137695314	-944.5752563476565	-412.835418701172	500.8536682128907	-952.0874023437502	-418.6138916015626	498.5882263183595	-1083.007080078125	-566.0000000000001	398.7425537109376	-990.7092895507815	-655.2139282226564	454.7449951171876	-963.7559204101565	-650.1339721679689	410.1459045410157	-977.1738891601565	-693.5788574218751	388.729461669922	-1013.08154296875	-817.4334106445315	416.049285888672	-996.2540283203127	-793.2498779296877	411.2407226562501	-1083.056518554688	-854.4886474609377	484.8650207519532	-1050.533447265625	-854.266784667969	268.7625427246094	-1098.794677734375	-862.3746337890627	262.5757751464844	-1058.373413085938	-901.1582641601565	295.2885131835938	-1010.6826171875	nan	nan	nan	nan	nan	nan	
784	3.915	-96.16470336914065	1709.8623046875	-1223.330688476563	-214.5746459960938	1648.417602539063	-1268.610595703125	-264.4527587890626	1598.643920898438	-1139.193725585938	-254.7403564453126	1500.718139648438	-1189.263916015625	-369.6924133300782	1219.901733398438	-1138.22314453125	-140.8633575439453	1415.570678710938	-1189.9853515625	-184.0408325195313	1482.37890625	-1326.378051757813	-27.13299369812012	1440.039306640625	-1398.210815429688	0.718191146850586	1449.750244140625	-1357.783203125	40.78583908081055	1426.418090820313	-1396.451049804688	97.6621017456055	1400.34375	-1397.162719726563	84.91275787353517	1342.437255859375	-1366.531616210938	359.9697875976563	1407.987182617188	-1266.905029296875	368.4489135742188	1420.96826171875	-1342.632690429688	453.7893676757814	1412.916625976563	-1260.471069335938	-160.6525421142578	1484.437133789063	-1057.928588867188	-7.662702083587648	1412.027709960938	-982.9038085937502	21.24824714660645	1431.756713867188	-1016.958740234375	57.32617568969728	1389.056640625	-991.6751708984377	116.6207962036133	1374.373779296875	-1006.892944335938	99.27534484863284	1319.03857421875	-1055.739501953125	375.5278015136719	1404.015014648438	-1150.238647460938	385.3740539550782	1385.212158203125	-1076.101684570313	471.2679748535157	1405.737915039063	-1149.360717773438	-271.1918029785157	996.2310791015627	-1232.805541992188	-258.7203979492188	993.9860839843752	-1010.730163574219	-427.9191284179689	1097.35400390625	-1113.577270507813	-447.1767578125001	1068.745971679688	-1140.65966796875	-440.9747924804689	1068.664794921875	-1083.741821289063	-332.1218566894532	750.5556030273439	-1280.10498046875	-269.2904663085938	692.9920654296876	-1281.830932617188	-225.6510925292969	711.4328613281251	-1283.86083984375	-269.2553710937501	637.4234619140626	-1259.888061523438	-207.9871368408204	526.9814453125001	-1240.151123046875	-220.4178466796876	520.0630493164064	-1114.7607421875	-218.6838684082032	308.3691406250001	-1177.707275390625	-291.4957275390626	286.1490173339844	-1222.165161132813	-252.1103057861329	270.7200012207032	-1204.713623046875	-272.4312744140626	196.1856536865235	-1160.614868164063	-360.9601135253907	128.5017395019532	-1174.659057617188	-329.4424438476563	142.4513549804688	-1091.120239257813	-429.1601562500001	101.9835510253907	-1124.597534179688	-217.5380554199219	56.66432571411134	-1103.05810546875	-218.9835510253907	51.45874404907228	-1148.44189453125	-270.4144592285157	39.71797561645509	-1198.60693359375	-359.4174804687501	743.1184082031251	-935.5303344726565	-337.2049865722657	680.5168457031251	-938.8315429687502	-304.9599609375001	675.1942749023439	-944.7285156250002	-380.3629455566407	610.1125488281251	-943.9366455078127	-411.3989868164064	502.3592224121095	-951.730407714844	-415.4803466796876	499.4622802734376	-1082.312744140625	-563.4067993164064	401.5478515625001	-989.7355957031252	-653.5786743164064	456.5473022460939	-963.977233886719	-648.5164794921876	411.5878295898439	-977.257751464844	-690.4129638671876	389.7928466796876	-1014.3193359375	-815.8900146484377	417.4448852539064	-997.0336914062502	-791.1096801757815	412.4778442382814	-1083.868774414063	-852.5927734375002	486.0460815429689	-1051.5771484375	-852.0334472656252	270.0854492187501	-1099.322143554688	-860.367858886719	263.6595764160157	-1059.319580078125	-899.6503906250002	296.8433532714844	-1011.804809570313	nan	nan	nan	nan	nan	nan	
